<svg xmlns="http://www.w3.org/2000/svg" viewBox="0 0 512 512" role="img" aria-label="CSV file icon">
  <path fill="#d9e1e5" d="M96 40h248l88 104v328H96z"/>
  <path fill="#b8c5cc" d="M344 40v80c0 13.3 10.7 24 24 24h64z"/>
  <path fill="#20b968" d="M160 136h112a8 8 0 0 1 0 16H160a8 8 0 0 1 0-16Zm0 48h192a8 8 0 0 1 0 16H160a8 8 0 0 1 0-16Zm0 48h192a8 8 0 0 1 0 16H160a8 8 0 0 1 0-16Z"/>
  <path fill="#18894d" d="M48 248h48v48H48c-17.7 0-32-14.3-32-32s14.3-32 32-32Z"/>
  <path fill="#20b968" d="M48 296h384c17.7 0 32 14.3 32 32v104c0 22.1-17.9 40-40 40H56c-22.1 0-40-17.9-40-40V280c0 8.8 7.2 16 16 16h16Z"/>
  <path fill="#d9e1e5" d="M141.5 390.5c-18.9 0-33.5-13.9-33.5-38.1 0-24 15.3-38.4 34.4-38.4 16.7 0 27.1 9.9 30.6 22.5 1.4 5-1.7 9.4-7.1 10.6-4.9 1.1-8.7-1.1-10.8-6.1-2.4-5.7-6.3-10-13.3-10-9.5 0-15.8 8-15.8 21.3 0 13.8 6.3 21.2 15.8 21.2 7.3 0 11.3-4.1 13.8-10.1 2-4.9 5.7-7.1 10.9-5.9 5.2 1.2 8.2 5.4 6.8 10.5-3.5 12.8-14.4 22.5-31.8 22.5Zm68.2.1c-18.1 0-30.2-8.1-32.7-21.7-.9-4.9 2.2-8.8 7.5-9.5 5.1-.7 8.3 1.3 10.4 5.8 2.2 4.8 6.8 8.2 15.3 8.2 7.9 0 12.1-2.8 12.1-7.3 0-5.4-6.1-6.4-17.4-8.4-13.5-2.4-26.1-6.6-26.1-21.4 0-13.7 11.5-22.3 29.4-22.3 17.5 0 28.9 7.6 31.1 20.6.9 4.9-2.2 8.5-7.4 9.2-4.8.7-8.1-1.2-10-5.4-2.2-4.8-6.2-7.2-13.6-7.2-7.1 0-11.1 2.3-11.1 6.4 0 4.8 5.6 5.9 16.1 7.8 13.9 2.5 27.5 6.3 27.5 22.5 0 14.1-11.9 22.7-31.1 22.7Zm66.7-2.1c-6.1 0-9.9-2.7-12.1-8.4l-22.2-57.3c-1.9-4.9.8-8.6 6.4-8.6h4.9c5.7 0 9.2 2.7 10.9 8.3l13.8 44.3 13.9-44.3c1.8-5.6 5.3-8.3 11-8.3h4.5c5.6 0 8.3 3.8 6.4 8.6l-22.2 57.3c-2.2 5.7-6 8.4-12.1 8.4h-3.2Z"/>
</svg>
